<svg width="20" height="20" viewBox="0 0 20 20" xmlns="http://www.w3.org/2000/svg">
<path clip-rule="evenodd" d="M8.59709 6.4788C8.62621 6.5424 8.65534 6.60601 8.68447 6.65371C8.71359 6.70141 8.75728 6.74912 8.78641 6.79682C8.8301 6.84452 8.87379 6.89223 8.93204 6.93993C8.97573 6.97173 9.03398 7.01943 9.1068 7.03534C9.16505 7.06714 9.2233 7.08304 9.29612 7.09894C9.36893 7.11484 9.42718 7.11484 9.48544 7.11484C9.54369 7.11484 9.6165 7.11484 9.67476 7.09894C9.73301 7.08304 9.79126 7.06714 9.83495 7.03534H9.84951C9.90777 7.00353 9.96602 6.97173 10.0243 6.92403C10.068 6.89223 10.1117 6.84452 10.1553 6.79682L10.1699 6.78092C10.2136 6.73322 10.2427 6.68551 10.2718 6.63781C10.301 6.59011 10.3301 6.5424 10.3447 6.4788C10.3447 6.4629 10.3447 6.4629 10.3592 6.447C10.3883 6.38339 10.4029 6.30389 10.4175 6.24028C10.432 6.17668 10.432 6.09717 10.432 6.03357C10.432 5.96996 10.432 5.89046 10.4175 5.82686C10.4029 5.76325 10.3883 5.69965 10.3592 5.62014C10.3155 5.50883 10.2573 5.41343 10.1845 5.33392C10.1699 5.31802 10.1699 5.31802 10.1553 5.30212C10.1117 5.25442 10.068 5.22261 10.0097 5.17491C9.95146 5.14311 9.90777 5.11131 9.84951 5.07951C9.79126 5.0477 9.73301 5.0318 9.67476 5.0159C9.60194 5 9.54369 5 9.48544 5C9.42718 5 9.35437 5 9.29612 5.0159C9.23786 5.0318 9.17961 5.0477 9.12136 5.07951H9.1068C9.04854 5.11131 8.99029 5.14311 8.9466 5.17491C8.88835 5.22261 8.84466 5.25442 8.80097 5.30212C8.75728 5.34982 8.71359 5.39753 8.68447 5.44523C8.65534 5.49293 8.62621 5.55654 8.59709 5.62014C8.56796 5.68375 8.5534 5.74735 8.53883 5.81095C8.52427 5.89046 8.52427 5.95406 8.52427 6.01767C8.52427 6.08127 8.52427 6.16078 8.53883 6.22438C8.5534 6.35159 8.58252 6.41519 8.59709 6.4788ZM10.6214 12.2986H10.2864V8.40283C10.2864 8.18021 10.1262 7.9894 9.90777 7.9894H8.37864C8.17476 7.9894 8 8.16431 8 8.40283V9.26148C8 9.4841 8.16019 9.67491 8.37864 9.67491H8.68447V12.3145H8.37864C8.17476 12.3145 8 12.4894 8 12.7279V13.5866C8 13.8092 8.16019 14 8.37864 14H10.6214C10.8252 14 11 13.8251 11 13.5866V12.7279C11 12.4894 10.8252 12.2986 10.6214 12.2986Z"/>
<path clip-rule="evenodd" d="M9.5 0C4.25503 0 0 4.25503 0 9.5C0 14.745 4.25503 19 9.5 19C14.745 19 19 14.745 19 9.5C19 4.25503 14.745 0 9.5 0ZM9.5 17.7495C4.94973 17.7495 1.25046 14.0503 1.25046 9.5C1.25046 4.94973 4.94973 1.25046 9.5 1.25046C14.0503 1.25046 17.7495 4.94973 17.7495 9.5C17.7495 14.0503 14.0503 17.7495 9.5 17.7495Z"/>
</svg>
