<svg width="20" height="20" viewBox="0 0 20 20" xmlns="http://www.w3.org/2000/svg">
<g clip-path="url(#clip0_13935_37)">
<path d="M19.507 7.88439L10.6212 0.208092C10.206 -0.0693642 9.70769 -0.0693642 9.3755 0.208092L0.406608 7.88439C-0.00861835 8.25434 -0.174709 8.99422 0.240518 9.54913C0.572699 10.0116 1.23706 10.1965 1.73533 9.7341L2.64883 8.99422V18.7977C2.64883 19.4451 3.1471 20 3.72842 20H16.4344C17.0157 20 17.5139 19.4451 17.5139 18.7977V8.90173L18.4274 9.64162C18.5935 9.82659 18.8427 9.91908 19.0918 9.91908C19.424 9.91908 19.6731 9.7341 19.9223 9.45665C20.0884 8.99422 20.0053 8.25434 19.507 7.88439ZM15.2717 17.5029H12.116V14.9133C12.116 13.6185 11.2025 12.6012 10.0399 12.6012C8.87723 12.6012 7.96373 13.6185 7.96373 14.9133V17.5029H4.64192V7.14451L9.95682 2.61272L15.2717 7.14451V17.5029Z" />
</g>
<defs>
<clipPath id="clip0_13935_37">
<rect width="20" height="20"/>
</clipPath>
</defs>
</svg>
